<svg xmlns="http://www.w3.org/2000/svg" xmlns:xlink="http://www.w3.org/1999/xlink" width="183.299" height="68.939" viewBox="0 0 183.299 68.939"><defs><clipPath id="a"><rect width="183.299" height="68.939" fill="none"/></clipPath></defs><g transform="translate(643.93 641.035)"><g transform="translate(-643.93 -641.035)" clip-path="url(#a)"><path d="M21.184,33.821c.759-.215,1.072.013.385,1.31L13.681,52.218C10.084,58,4.248,60.417.237,57.446c-.316-.293-.381-.892.214-.683,4.18,2.854,8.224.2,12.022-6.833l7.055-16.091Z" transform="translate(0 -5.867)" fill="#29407c" fill-rule="evenodd"/><path d="M35.353,58.708c-.78-.674-.064-1.08.492-.781,1.04.188,2.081-1.356,3.121-3.265l7.92-18.556c.414-1.536,1.948-2.274,2.962-1.33L40.7,56.454c.007,1.442,1.146,1.839,2.11.492.563-.993,1,.044.2,1.04-.58.787-1.709,1.017-3.295.8C38.16,58.481,36.6,58.965,35.353,58.708Z" transform="translate(-6.086 -5.973)" fill="#29407c" fill-rule="evenodd"/><path d="M55.068,55.761c.563-3.036,6.57-8.337,10.737-7.4a41.985,41.985,0,0,0-4,8.344c-3.12,5.446-7.341,2.309-6.738-.945m11.288,2.8c-.336,2.059-3.193,2.012-2.482-.795a45.269,45.269,0,0,1,4.692-9.614c-4.052-2.591-14.38.958-16.015,7.393C51.94,59.234,53.94,62.177,60,60.2c0,.243-.1.485-.1.727l5.2-.086a3.306,3.306,0,0,0,1.962-2.35c.029-.835-.625-.623-.717.069" transform="translate(-9.117 -8.222)" fill="#29407c" fill-rule="evenodd"/><path d="M74.67,50.6c-.709.191-.88-.33-.315-.8L79.276,47.5c.771-.383,1.086-.075.265,1.162a83.851,83.851,0,0,0-4.609,8.832c-.827,4.225,2.615,2.617,6.034-1.162l7.285-9.056c.6-.644,1.2-.22.072,1.153a58.017,58.017,0,0,0-6.329,12.252C77.854,69.235,73.2,74.366,69.3,74.9c-2.5.4-4-.25-4.869-1.825-.391-1.138-.073-1.68.572-.5,1.067,2.07,3.781,2.137,5.793.378,4.385-3.744,7.489-9.993,10.459-15.895-1.447,1.294-3.238,3.084-4.856,3.611-2.6.668-3.92-.214-3.987-1.932-.244-1.575,1.12-4.636,3.949-8.867Z" transform="translate(-11.17 -8.167)" fill="#29407c" fill-rule="evenodd"/><path d="M86.15,70.2c-.867.5-1.4-.1.114-1.187C95.747,57.728,96.9,31.868,106.471,28.621c.39-.131,4.441-.269,4.223,2.41-.384,1.21-1.753,1.214-2.009.116.35-1.663-2.216-2.524-3.556-.873-2.8,3.446-4.563,9.255-6.333,15.14,4.9-3.207,4.212,3.868,1.433,1.435a6.571,6.571,0,0,0-2.269,1.3C96.033,54.316,93.752,63.727,86.15,70.2Z" transform="translate(-14.829 -4.965)" fill="#29407c" fill-rule="evenodd"/><path d="M104.793,57.463c-.76-.456-.4-.882.3-.777,1.258.345,2.008-.635,2.571-2.093,3.636-9.39,6.5-17.955,9.533-23.324,2.293-3.563,4.907-3.565,6.77-1.076.233.893-.478,1.019-.818.18-1.3-2.078-4.151-.9-5.259,2.511l-7.355,22.008c-.26,1-.23,1.8.837,1.913,1.025-.318,1.274.6,0,.813-2.24-.4-4.634.2-6.578-.155" transform="translate(-18.143 -4.945)" fill="#29407c" fill-rule="evenodd"/><path d="M128.047,56.946c-2.005,2.662-4.691,3.977-6.327,2.6s-.654-5.514,1.351-8.4,5.208-3.85,6.381-2.268.6,5.4-1.405,8.061m1.962-8.806h0c-2.25-1.564-7.148-.462-9.435,2.826s-1.728,7.772.522,9.337,6.9.208,9.183-2.827,1.98-7.772-.27-9.336" transform="translate(-20.705 -8.247)" fill="#29407c" fill-rule="evenodd"/><path d="M140.466,48.4c-.65.565-1.309-.034-.32-.818,1.22-.6,2.953.395,4.225-.178.756-.172.754.2-.036,1-2.881,3.368-4.978,6.839-5.68,10.493.339,1.719,3.456,1.666,5.609-2.455a41.544,41.544,0,0,0,3.2-7.4q-.48-1.814-1.669.356c-.557.782-.557.521-.355-.782.8-1.684,3.314-.771,5.006-1.637.515-.178.587.088.284.747-1.468,3.2-3.717,7.327-4.261,10.778-.131,1.885,1.515,1.956,3.941.107a14.484,14.484,0,0,0,3.942-11.276c-.1-.892.294-.881.78-.284,1.773,3.7-1.308,13.031-7.988,13.729-2,.278-2.594-1.112-2.982-2.74-2.19,2.774-4.391,3.486-6.391,1.992-1.766-2.74-.479-5.63,1.562-8.465l1.882-2.739c.191-.551-.323-.729-.746-.427Z" transform="translate(-23.804 -8.106)" fill="#29407c" fill-rule="evenodd"/><path d="M164.191,54.236c.65-4.006,4.859-7.53,7.93-6.186,1.893,2.886-4.146,7.835-7.93,6.186m8.6,4.376c1.12-.986.544-1.581-.409-.641-3.488,2.586-7.675,1.449-7.939-2.735,5.516.545,10.088-2.02,10.5-7.245-.119-3.046-9.107-1.782-12.731,4.47-2.644,4.262,2.2,12.245,10.583,6.152" transform="translate(-28.071 -8.067)" fill="#29407c" fill-rule="evenodd"/><path d="M182.616,49.475c-1.105.1-.781-.535-.041-.863a27.667,27.667,0,0,1,4.071-1.316c.849-.055,1.068.274.493.987a5.6,5.6,0,0,0-.823,1.275c6.309-5.931,10.044,1.305,5.306,2.221-1.1.141-1.144-.292-.7-.987.731-2.819-.559-2.651-2.139-2.056a16.194,16.194,0,0,0-7.2,9.951c-.1,1.433.548,1.584,1.768,1.152.867-.828,1.074.075.1.854-1.727.52-5.32-.2-6.972.236-.695-.207-.43-.826.38-.885a2.982,2.982,0,0,0,2.426-1.728l4.729-9.5-1.4.658Z" transform="translate(-30.608 -8.213)" fill="#29407c" fill-rule="evenodd"/><path d="M27.173,42.627c-2.119,1.5-3.854,3.805-3.966,5.982.149.9.6,1.851,1.7.9,2.215-2.051,2.226-4.468,2.271-6.879M8.555,26.608c.416,2.189-.853,1.075-.89.024-.586-4.355,2.541-7.541,6.385-7.228,8.052,1.8,10.81,10.322,13.333,19.4,6.384-6.537,19.672-12.6,22.854-19.723,2.813-5.048-.073-9.73-3.983-11.843,3.14,3.876.679,6.878.9,7.9-3.606-3.971-3.655-5.958-1.9-7.977-3.058,2.469-5.084,2.427-7.829.673C39,6.167,41.3,3.963,45.043,5.727,44.1,3.643,46.336,1.656,47.825,0c.529,2.177,2.483,3.852-1.136,6.722,9.7,4.229,5.1,16.856-2.593,22.555-5.156,4.372-15.234,9.9-16.332,12.508.264,4.449-1.043,8.52-3.65,8.994-1.932-.256-4.594-2.669,2.142-11.13-2.987-7.581-4.976-13.205-12.271-17.876-2.22-1.11-5.42-1.072-5.43,4.835Z" transform="translate(-1.32 0)" fill="#ec6e7a" fill-rule="evenodd"/><path d="M110.05,82.1l-1.112-4.14-1.129,4.14h-1.574l-1.959-5.988H105.9l1.172,4.406,1.146-4.406h1.489l1.172,4.406,1.155-4.406h1.556L111.615,82.1Z" transform="translate(-18.127 -13.231)" fill="#ec6e7a" fill-rule="evenodd"/><path d="M117.886,79.1a1.742,1.742,0,0,0,1.694,1.788,1.781,1.781,0,1,0-1.694-1.788m4.919-.008a3.245,3.245,0,1,1-3.243-3.037,3.089,3.089,0,0,1,3.243,3.037" transform="translate(-20.222 -13.22)" fill="#ec6e7a" fill-rule="evenodd"/><path d="M131,82.1l-.008-3.892L129.552,81.5h-.992l-1.438-3.293V82.1h-1.36v-6h1.668l1.626,3.567,1.625-3.567h1.66v6Z" transform="translate(-21.862 -13.229)" fill="#ec6e7a" fill-rule="evenodd"/><path d="M137.33,77.311V78.5h2.857v1.2H137.33V80.9h3.259v1.2h-4.782V76.113h4.688v1.2Z" transform="translate(-23.608 -13.231)" fill="#ec6e7a" fill-rule="evenodd"/><path d="M147.591,82.1l-2.754-3.687V82.1h-1.428V76.114h1.343l2.764,3.7v-3.7h1.42V82.1Z" transform="translate(-24.929 -13.231)" fill="#ec6e7a" fill-rule="evenodd"/><path d="M153.236,76.805a.969.969,0,0,1-.188.564l-.625.907h-.7l.385-.907a.646.646,0,0,1-.282-.556.682.682,0,0,1,.71-.71.673.673,0,0,1,.7.7" transform="translate(-26.374 -13.23)" fill="#ec6e7a" fill-rule="evenodd"/><path d="M159.852,76.7l-.573,1.189a4.464,4.464,0,0,0-1.916-.625c-.394,0-.659.145-.659.436,0,1.035,3.165.445,3.165,2.609,0,1.2-1.06,1.831-2.394,1.831a4.462,4.462,0,0,1-2.738-.958l.591-1.172a3.734,3.734,0,0,0,2.164.9c.479,0,.779-.179.779-.521,0-1.061-3.165-.428-3.165-2.55,0-1.1.949-1.805,2.386-1.805a4.493,4.493,0,0,1,2.361.668" transform="translate(-26.898 -13.217)" fill="#ec6e7a" fill-rule="evenodd"/><path d="M169.6,82.1V79.774h-2.481V82.1H165.6V76.114h1.523v2.464H169.6V76.114h1.523V82.1Z" transform="translate(-28.787 -13.231)" fill="#ec6e7a" fill-rule="evenodd"/><path d="M175.439,79.1a1.742,1.742,0,0,0,1.694,1.788,1.781,1.781,0,1,0-1.694-1.788m4.919-.008a3.244,3.244,0,1,1-3.242-3.037,3.09,3.09,0,0,1,3.242,3.037" transform="translate(-30.227 -13.22)" fill="#ec6e7a" fill-rule="evenodd"/><path d="M187.883,76.7l-.573,1.189a4.465,4.465,0,0,0-1.916-.625c-.393,0-.659.145-.659.436,0,1.035,3.166.445,3.166,2.609,0,1.2-1.061,1.831-2.4,1.831a4.462,4.462,0,0,1-2.738-.958l.591-1.172a3.734,3.734,0,0,0,2.164.9c.479,0,.779-.179.779-.521,0-1.061-3.165-.428-3.165-2.55,0-1.1.949-1.805,2.386-1.805a4.494,4.494,0,0,1,2.361.668" transform="translate(-31.771 -13.217)" fill="#ec6e7a" fill-rule="evenodd"/><path d="M192.128,79.219h1.01c.668,0,1.051-.334,1.051-.967s-.383-.941-1.051-.941h-1.01Zm1.086-3.106c1.531,0,2.412.753,2.412,2.087a2.114,2.114,0,0,1-2.412,2.216h-1.086V82.1H190.6V76.113Z" transform="translate(-33.133 -13.231)" fill="#ec6e7a" fill-rule="evenodd"/><rect width="1.523" height="5.988" transform="translate(163.803 62.882)" fill="#ec6e7a"/><path d="M204.841,77.335V82.1h-1.523V77.335h-1.788V76.1h5.116v1.231Z" transform="translate(-35.033 -13.229)" fill="#ec6e7a" fill-rule="evenodd"/><path d="M210.9,77.628l-.872,2.215h1.728ZM209.58,81l-.436,1.1h-1.566l2.583-5.988h1.566L214.25,82.1h-1.625L212.2,81Z" transform="translate(-36.084 -13.231)" fill="#ec6e7a" fill-rule="evenodd"/><path d="M221.012,80.827V82.1h-4.063V76.114h1.523v4.713Z" transform="translate(-37.713 -13.231)" fill="#ec6e7a" fill-rule="evenodd"/></g></g></svg>